# xmcd
#
# Track frame offsets:
#	150
#	13137
#	22973
#	35494
#	50032
#	64950
#	78238
#	88723
#	104336
#	119230
#	132813
#	143393
#	159767
#	169133
#	183384
#	199253
#
# Disc length: 2829 seconds
#
# Revision: 0
# Processed by: cddbd v1.5.2PL0 Copyright (c) Steve Scherf et al.
# Submitted via: EasyCDDAExtractor 16.0.6.1
#
DISCID=d70b0b10
DTITLE=Πουλόπουλος Γιάννης - Ενενήντα έξι μεγ. επιτυχίες-Γ. Πουλόπουλος 2
DYEAR=2010
DGENRE=Ποικίλη
TTITLE0=Πουλόπουλος Γιάννης-Κλάδη Ελένη - Μιά φορά μονάχα φτάνει [Γ. Σπανός-Κ.
TTITLE0=Κινδύνης]
TTITLE1=Πουλόπουλος Γιάννης - Γέλασε η Μαρία [Μ. Πλέσσας-Λ. Παπαδόπουλος]
TTITLE2=Πουλόπουλος Γιάννης - Γειτονάκι μου [Λ. Κόκοτος-Ά. Δασκαλόπουλος]
TTITLE3=Πουλόπουλος Γιάννης - Μην τού μιλάτε του παιδιού [Μ. Πλέσσας-Λ. Παπαδό
TTITLE3=πουλος]
TTITLE4=Πουλόπουλος Γιάννης - Ξημερώνει Κυριακή [Μ. Πλέσσας-Λ. Παπαδόπουλος]
TTITLE5=Πουλόπουλος Γιάννης - Όλα δικά σου [Μ. Πλέσσας-Λ. Παπαδόπουλος]
TTITLE6=Πουλόπουλος Γιάννης - Φίλε μου [Γιάννης Μπιθικώτσης-Σάσα Μανέττα]
TTITLE7=Πουλόπουλος Γιάννης - Βρέχει στη φτωχογειτονιά [Μ. Θεοδωράκης-Τ. Λειβα
TTITLE7=δίτης]
TTITLE8=Πουλόπουλος Γιάννης - Η αχάριστη [Βασίλης Τσιτσάνης]
TTITLE9=Πουλόπουλος Γιάννης - Μικρός ο κόσμος γύρω μου [Μ. Λοΐζος-Αθαν. Χαμπίπ
TTITLE9=ης]
TTITLE10=Πουλόπουλος Γιάννης - Δεν έχει αστέρια ο ουρανός [Κυριάκος Σφέτσας]
TTITLE11=Πουλόπουλος Γιάννης - Άνθρωπος είμαι και ματώνω [Αντ. Στεφανίδης-Μπέτ
TTITLE11=τυ Πουλοπούλου]
TTITLE12=Πουλόπουλος Γιάννης - Τα ματόκλαδά σου λάμπουν [Μ. Βαμβακάρης]
TTITLE13=Πουλόπουλος Γιάννης - Χρυσοπράσινο φύλλο [Μ. Θεοδωράκης-Λεων. Μαλένης
TTITLE13=]
TTITLE14=Πουλόπουλος Γιάννης - Κυρά, καλέ κυρά μου [Μ. Πλέσσας-Ά. Δασκαλόπουλο
TTITLE14=ς]
TTITLE15=Πουλόπουλος Γιάννης - Πάμε να βρούμε καλοκαίρι [Γ. Ζαμπέτας-Αλέκος Κα
TTITLE15=γιάντας]
EXTD=
EXTT0=
EXTT1=
EXTT2=
EXTT3=
EXTT4=
EXTT5=
EXTT6=
EXTT7=
EXTT8=
EXTT9=
EXTT10=
EXTT11=
EXTT12=
EXTT13=
EXTT14=
EXTT15=
PLAYORDER=
